<svg xmlns="http://www.w3.org/2000/svg" version="1.1" xmlns:xlink="http://www.w3.org/1999/xlink" xmlns:svgjs="http://svgjs.dev/svgjs" width="128" height="128" viewBox="0 0 128 128"><g transform="matrix(0.5364583333333334,0,0,0.5364583333333334,29.666666666666657,12.5)"><svg viewBox="0 0 150 225" data-background-color="#ffffff" preserveAspectRatio="xMidYMid meet" height="192" width="128" xmlns="http://www.w3.org/2000/svg" xmlns:xlink="http://www.w3.org/1999/xlink"><g id="tight-bounds" transform="matrix(1,0,0,1,0,0)"><svg viewBox="0 0 150 225" height="225" width="150"><g><svg></svg></g><g><svg viewBox="0 0 150 225" height="225" width="150"><g><path d="M141.545 99v-16.5c0-8.25-7.486-15.001-16.636-15h-36.409c-5.937 0-11.069-3.45-13.5-8.456-2.43 5.004-7.563 8.455-13.5 8.456h-36.409c-9.15 0-16.636 6.751-16.636 15v16.5c0 5.937-3.45 11.069-8.455 13.5 5.004 2.43 8.455 7.563 8.455 13.5v16.5c0 8.25 7.486 15.001 16.636 15h36.409c5.937 0 11.069 3.45 13.5 8.456 2.43-5.004 7.563-8.455 13.5-8.456h36.409c9.15 0 16.636-6.751 16.636-15v-16.5c0-5.937 3.45-11.069 8.455-13.5-5.004-2.43-8.455-7.563-8.455-13.5z" fill="#0023ff" fill-rule="nonzero" stroke="none" stroke-width="1" stroke-linecap="butt" stroke-linejoin="miter" stroke-miterlimit="10" stroke-dasharray="" stroke-dashoffset="0" font-family="none" font-weight="none" font-size="none" text-anchor="none" style="mix-blend-mode: normal" data-fill-palette-color="tertiary"></path></g><g transform="matrix(1,0,0,1,61.13042675159235,81.21375)"><svg viewBox="0 0 27.73914649681529 62.572500000000005" height="62.572500000000005" width="27.73914649681529"><g><svg viewBox="0 0 27.73914649681529 62.572500000000005" height="62.572500000000005" width="27.73914649681529"><g><svg viewBox="0 0 27.73914649681529 62.572500000000005" height="62.572500000000005" width="27.73914649681529"><g><svg viewBox="0 0 27.73914649681529 62.572500000000005" height="62.572500000000005" width="27.73914649681529"><g><svg viewBox="0 0 27.73914649681529 62.572500000000005" height="62.572500000000005" width="27.73914649681529"><g transform="matrix(1,0,0,1,0,0)"><svg width="27.73914649681529" viewBox="2.3 -39.3 17.4 39.25" height="62.572500000000005" data-palette-color="#ffffff"><path d="M19.7-2.3L18.6-0.05 2.9-0.05 2.9-1.85 7.6-5.55 7.6-35.35 2.3-37.05 3.45-39.3 19.15-39.3 19.15-37.5 14.4-33.75 14.4-4 19.7-2.3Z" opacity="1" transform="matrix(1,0,0,1,0,0)" fill="#ffffff" class="undefined-text-0" data-fill-palette-color="quaternary" id="text-0"></path></svg></g></svg></g></svg></g></svg></g><g></g></svg></g></svg></g></svg></g><defs></defs></svg><rect width="150" height="225" fill="none" stroke="none" visibility="hidden"></rect></g></svg></g></svg>